<svg width="512" height="512" viewBox="0 0 512 512" fill="none" xmlns="http://www.w3.org/2000/svg" role="img" aria-labelledby="title desc">
  <title id="title">SteadyPlan PWA icon source</title>
  <desc id="desc">High-contrast SteadyPlan icon source for generating app icons.</desc>
  <rect width="512" height="512" rx="144" fill="#F5F1E8"/>
  <path d="M325 119C356.5 119 382 144.5 382 176C382 204.8 360.2 229 331.9 232.5L228.6 245.5C194.4 249.7 168 279.3 168 313.5C168 351 198.3 381 235.6 381H330.8C348.1 381 362 367.1 362 349.8C362 332.5 348.1 318.6 330.8 318.6H252.7C229.1 318.6 210 299.8 210 276.2C210 254.3 226.2 236.1 247.5 233.4L350.8 220.4C384 216.2 409 187.8 409 154.6C409 109.1 372.2 72 326.7 72H180V119H325Z" fill="#163A59"/>
  <path d="M187 393C155.5 393 130 367.5 130 336C130 307.2 151.8 283 180.1 279.5L283.4 266.5C317.6 262.3 344 232.7 344 198.5C344 161 313.7 131 276.4 131H181.2C163.9 131 150 144.9 150 162.2C150 179.5 163.9 193.4 181.2 193.4H259.3C282.9 193.4 302 212.2 302 235.8C302 257.7 285.8 275.9 264.5 278.6L161.2 291.6C128 295.8 103 324.2 103 357.4C103 402.9 139.8 440 185.3 440H332V393H187Z" fill="#7FB287"/>
</svg>
