<svg width="64" height="64" viewBox="0 0 64 64" fill="none" xmlns="http://www.w3.org/2000/svg" role="img" aria-labelledby="title desc">
  <title id="title">SteadyPlan logo mark</title>
  <desc id="desc">Abstract S-shaped brand mark in deep navy and muted green.</desc>
  <path d="M42.5 10C47.2 10 51 13.8 51 18.5C51 22.8 47.8 26.4 43.6 26.9L28.2 28.9C23.1 29.5 19.2 33.9 19.2 39C19.2 44.6 23.8 49 29.3 49H43.5C46.1 49 48.2 46.9 48.2 44.3C48.2 41.7 46.1 39.6 43.5 39.6H31.8C28.3 39.6 25.4 36.8 25.4 33.3C25.4 30.1 27.8 27.4 30.9 27L46.3 25C51.2 24.4 55 20.2 55 15.2C55 8.5 49.6 3 42.9 3H21.1V10H42.5Z" fill="#163A59"/>
  <path d="M21.5 54C16.8 54 13 50.2 13 45.5C13 41.2 16.2 37.6 20.4 37.1L35.8 35.1C40.9 34.5 44.8 30.1 44.8 25C44.8 19.4 40.2 15 34.7 15H20.5C17.9 15 15.8 17.1 15.8 19.7C15.8 22.3 17.9 24.4 20.5 24.4H32.2C35.7 24.4 38.6 27.2 38.6 30.7C38.6 33.9 36.2 36.6 33.1 37L17.7 39C12.8 39.6 9 43.8 9 48.8C9 55.5 14.4 61 21.1 61H42.9V54H21.5Z" fill="#7FB287"/>
</svg>
